<?xml version="1.0" encoding="UTF-8"?>
<svg xmlns="http://www.w3.org/2000/svg" viewBox="0 0 1024 1024">
<defs>
<linearGradient id="grad" gradientUnits="userSpaceOnUse" x1="3521" y1="5965" x2="7239" y2="5965" spreadMethod="pad">
<stop offset="0" stop-color="#3468FF"/>
<stop offset="1" stop-color="#7A2EFF"/>
</linearGradient>
</defs>
<g transform="translate(0,1024) scale(0.1,-0.1)">
<path d="M5285.0 8005.0 C4816.0 7742.0 4375.0 7574.0 3740.0 7415.0 C3661.0 7395.0 3585.0 7372.0 3572.0 7364.0 C3518.0 7329.0 3517.0 7316.0 3523.0 6800.0 C3529.0 6293.0 3539.0 6146.0 3585.0 5909.0 C3682.0 5415.0 3899.0 4997.0 4244.0 4642.0 C4501.0 4377.0 4767.0 4187.0 5130.0 4007.0 C5327.0 3909.0 5424.0 3875.0 5477.0 3885.0 C5540.0 3897.0 5710.0 3969.0 5848.0 4042.0 C6121.0 4188.0 6336.0 4345.0 6536.0 4545.0 C6920.0 4929.0 7134.0 5377.0 7217.0 5971.0 C7229.0 6061.0 7233.0 6209.0 7237.0 6664.0 C7240.0 6983.0 7239.0 7263.0 7235.0 7286.0 C7224.0 7364.0 7194.0 7383.0 7013.0 7425.0 C6470.0 7553.0 5986.0 7741.0 5515.0 8005.0 C5412.0 8063.0 5388.0 8063.0 5285.0 8005.0 Z " fill="#FFFFFF"/>
<path d="M5285 8005 c-469 -263 -910 -431 -1545 -590 -79 -20 -155 -43 -168
-51 -54 -35 -55 -48 -49 -564 6 -507 16 -654 62 -891 97 -494 314 -912 659
-1267 257 -265 523 -455 886 -635 197 -98 294 -132 347 -122 63 12 233 84 371
157 273 146 488 303 688 503 384 384 598 832 681 1426 12 90 16 238 20 693 3
319 2 599 -2 622 -11 78 -41 97 -222 139 -543 128 -1027 316 -1498 580 -103
58 -127 58 -230 0z m184 -409 c134 -81 477 -240 672 -311 223 -82 537 -180
672 -210 l29 -6 -5 -502 c-4 -546 -7 -577 -68 -828 -51 -214 -171 -476 -296
-650 -54 -76 -65 -66 -70 61 -8 216 -37 370 -93 481 -45 88 -147 191 -232 234
-39 19 -77 35 -84 35 -20 0 -18 4 26 69 89 131 125 256 125 441 0 114 -4 147
-23 210 -35 111 -87 202 -159 280 -276 298 -726 334 -1029 83 -132 -110 -223
-298 -224 -461 0 -35 -4 -62 -9 -60 -8 3 -354 293 -598 501 -57 49 -103 93
-103 98 0 5 12 11 28 15 176 40 467 133 702 225 147 58 486 223 590 288 36 22
71 40 79 41 7 0 39 -15 70 -34z m-1538 -919 c113 -100 815 -706 1119 -967 919
-787 1120 -962 1120 -972 0 -12 -176 -150 -275 -215 -182 -121 -397 -233 -447
-233 -68 0 -311 118 -503 244 -359 237 -642 549 -815 899 -106 217 -192 515
-221 767 -12 112 -27 510 -19 510 3 -1 21 -15 41 -33z m1218 -228 c94 -50 171
-93 171 -95 0 -11 -106 -55 -144 -60 -82 -12 -166 31 -197 100 -19 42 -26 146
-10 146 4 0 85 -41 180 -91z m721 36 c0 -72 -28 -127 -82 -162 -59 -40 -150
-39 -227 1 -37 19 -50 31 -43 38 15 15 325 177 340 177 8 1 12 -16 12 -54z" fill="url(#grad)"/>
<path d="M4920.0 6980.0 L4820.0 6860.0 L4750.0 6730.0 L4720.0 6630.0 L4710.0 6480.0 L4680.0 6460.0 L6390.0 5050.0 L6380.0 5320.0 L6310.0 5620.0 L6180.0 5790.0 L6100.0 5850.0 L5980.0 5900.0 L5980.0 5940.0 L6040.0 6020.0 L6100.0 6160.0 L6130.0 6310.0 L6120.0 6590.0 L6090.0 6690.0 L6000.0 6850.0 L5870.0 6980.0 L5650.0 7110.0 L5510.0 7140.0 L5220.0 7130.0 L5120.0 7100.0 Z " fill="#0E1338"/>
<path d="M5149.0 6449.0 C5243.0 6399.0 5320.0 6356.0 5320.0 6354.0 C5320.0 6343.0 5214.0 6299.0 5176.0 6294.0 C5094.0 6282.0 5010.0 6325.0 4979.0 6394.0 C4960.0 6436.0 4953.0 6540.0 4969.0 6540.0 C4973.0 6540.0 5054.0 6499.0 5149.0 6449.0 Z " fill="#FFFFFF"/>
<path d="M5870.0 6485.0 C5870.0 6413.0 5842.0 6358.0 5788.0 6323.0 C5729.0 6283.0 5638.0 6284.0 5561.0 6324.0 C5524.0 6343.0 5511.0 6355.0 5518.0 6362.0 C5533.0 6377.0 5843.0 6539.0 5858.0 6539.0 C5866.0 6540.0 5870.0 6523.0 5870.0 6485.0 Z " fill="#FFFFFF"/>
<path d="M2985 6425 c-34 -33 -34 -93 -1 -132 24 -28 26 -28 153 -31 113 -2
132 -1 160 17 55 35 52 130 -6 161 -11 5 -79 10 -151 10 -126 0 -132 -1 -155
-25z" fill="#4884FF"/>
<path d="M2548 5905 c-34 -19 -51 -73 -36 -116 20 -58 30 -59 446 -59 365 0
380 1 405 20 51 40 43 126 -14 155 -42 22 -761 21 -801 0z" fill="#4884FF"/>
<path d="M2338 5432 c-36 -4 -78 -55 -78 -94 0 -21 10 -40 34 -64 l34 -34 571
0 c421 0 577 3 596 12 58 26 71 103 26 149 l-29 29 -179 0 c-98 1 -351 2 -563
3 -212 1 -397 1 -412 -1z" fill="#4884FF"/>
<path d="M2112 3528 c-17 -17 -17 -1149 0 -1166 18 -18 725 -17 793 2 156 41
235 140 235 294 0 37 -5 84 -10 104 -21 75 -98 148 -181 172 -22 6 -21 8 16
21 93 33 153 149 142 277 -13 153 -94 245 -256 290 -57 16 -106 18 -396 18
-244 0 -334 -3 -343 -12z m691 -231 c42 -27 61 -64 61 -117 0 -58 -20 -91 -70
-115 -32 -15 -68 -18 -244 -19 l-205 -1 -3 138 -3 138 219 -3 c188 -3 222 -5
245 -21z m-11 -477 c53 -15 98 -70 98 -121 0 -57 -22 -92 -71 -115 -39 -17
-67 -19 -259 -19 l-215 0 -3 133 -3 132 208 0 c114 0 225 -5 245 -10z" fill="#5061FC"/>
<path d="M6454 3541 c-37 -16 -74 -70 -74 -107 0 -75 51 -124 130 -124 79 0
130 49 130 125 0 26 -9 45 -33 71 -28 31 -41 37 -83 40 -27 2 -58 0 -70 -5z" fill="#1F2345"/>
<path d="M5970 2945 l0 -595 110 0 110 0 0 595 0 595 -110 0 -110 0 0 -595z" fill="#1F2345"/>
<path d="M3493 3170 c-74 -19 -147 -52 -158 -70 -7 -12 31 -117 49 -137 9 -10
25 -7 76 15 55 23 79 27 160 27 76 0 101 -4 126 -19 34 -20 64 -72 64 -109 0
-23 -1 -23 -125 -19 -288 10 -405 -65 -405 -257 0 -91 34 -160 103 -207 62
-43 104 -54 202 -54 86 0 139 18 202 66 l33 25 6 -41 7 -40 98 0 99 0 0 278
c0 312 -7 363 -64 441 -76 107 -282 151 -473 101z m315 -510 c-5 -70 -28 -101
-94 -126 -57 -22 -155 -16 -185 12 -51 46 -44 120 14 147 48 22 63 25 171 26
l98 1 -4 -60z" fill="#1F2345"/>
<path d="M4534 3174 c-23 -8 -60 -30 -82 -50 l-41 -35 -3 43 -3 43 -107 3
-108 3 0 -416 0 -415 110 0 110 0 0 263 c0 255 1 265 23 307 57 107 210 108
265 0 21 -43 22 -54 22 -307 l0 -263 111 0 111 0 -4 313 c-3 301 -4 314 -26
362 -49 105 -130 157 -257 162 -54 2 -94 -2 -121 -13z" fill="#1F2345"/>
<path d="M5251 3170 c-73 -20 -161 -63 -161 -79 0 -5 14 -39 30 -76 25 -55 33
-66 48 -59 179 79 343 71 385 -19 9 -19 17 -46 17 -59 l0 -23 -158 0 c-176 0
-220 -9 -283 -58 -63 -48 -84 -96 -84 -192 1 -95 21 -143 86 -198 55 -48 116
-67 210 -67 88 0 148 18 201 60 20 17 39 30 42 30 3 0 6 -17 8 -37 l3 -38 98
0 98 0 -1 287 c-1 319 -6 355 -63 430 -80 105 -286 147 -476 98z m319 -510 c0
-52 -4 -65 -25 -86 -14 -14 -41 -32 -60 -40 -45 -18 -138 -18 -175 1 -80 41
-61 149 30 174 19 5 79 10 133 10 l97 1 0 -60z" fill="#1F2345"/>
<path d="M7799 3167 c-150 -52 -238 -155 -269 -315 -40 -203 50 -391 228 -475
59 -28 79 -32 173 -35 157 -6 257 28 340 115 l37 38 -60 55 -60 54 -32 -19
c-105 -63 -186 -79 -276 -55 -58 15 -123 81 -137 139 l-11 41 294 0 c265 0
295 2 301 17 3 9 1 58 -5 108 -26 225 -149 343 -367 352 -75 3 -101 0 -156
-20z m236 -180 c28 -15 47 -37 64 -70 13 -26 22 -50 19 -52 -6 -6 -369 -8
-375 -2 -7 7 32 80 53 98 62 54 168 66 239 26z" fill="#1F2345"/>
<path d="M6390 2765 l0 -415 110 0 110 0 0 415 0 415 -110 0 -110 0 0 -415z" fill="#1F2345"/>
<path d="M6790 3085 l0 -95 180 -2 181 -3 -113 -140 c-62 -77 -148 -184 -191
-239 l-78 -99 3 -76 3 -76 335 0 335 0 3 92 3 93 -196 2 -195 3 136 170 c76
94 159 198 186 233 l48 63 0 85 0 84 -320 0 -320 0 0 -95z" fill="#1F2345"/>
</g></svg>