<?xml version="1.0" encoding="UTF-8"?>
<svg id="Calque_2" xmlns="http://www.w3.org/2000/svg" viewBox="0 0 525.3 438.87">
  <defs>
    <style>
      .cls-1 {
        fill: #4156fd;
      }
    </style>
    <linearGradient id="shieldGradient" gradientUnits="userSpaceOnUse" x1="172" y1="0" x2="525.3" y2="438.87">
      <stop offset="0" stop-color="#3468FF"/>
      <stop offset="1" stop-color="#7A2EFF"/>
    </linearGradient>
  </defs>
  <g id="Calque_1-2" data-name="Calque_1">
    <path fill="url(#shieldGradient)" d="M525.22,144.54c-.25,16.63.81,39.13-1.05,61.59-3.24,39.12-13.3,76.24-32.49,110.67-21.43,38.44-51.91,68.19-88.7,91.73-15.99,10.23-32.73,19.08-50.2,26.71-11.27,4.92-21.45,4.81-32.57-.1-29.95-13.24-57.9-29.61-83.49-50.1-32.42-25.96-58.11-57.2-76.2-94.65-11.09-22.96-18.26-47.1-22.39-72.21-7.38-44.81-4.83-90-5.15-135.08-.05-7.37,3.93-11.64,11.5-13.47,34.62-8.35,68.93-17.74,102.21-30.53,25.95-9.97,51.08-21.66,74.83-36.16,6.58-4.02,12.54-3.83,19.11.04,25.6,15.1,52.37,27.77,80.15,38.37,29.88,11.41,60.55,20.05,91.69,27.07,8.09,1.83,12.73,6.85,12.74,16.49.03,17.93,0,35.85,0,59.63ZM258.08,167.99c.95,1.22,1.67,2.81,2.9,3.59,12.09,7.67,22.17,17.85,33.33,26.68,14.48,11.46,28.59,23.38,42.83,35.14,22,18.15,43.96,36.34,65.97,54.48,11.22,9.24,22.04,18.98,33.89,27.43,2.01,2.55,3.82,2.72,5.53-.34.68-1.22,1.59-2.31,2.39-3.46,24.6-35.35,36.25-75.03,37.77-117.62,1.03-28.95.24-57.96.39-86.95.01-2.67-.99-4.06-3.34-4.31-6.28-.66-12.19-2.78-18.18-4.5-43.89-12.65-86.37-28.79-126.03-51.74-3.36-1.94-5.66-1.91-8.99.1-39.7,23.93-82.17,41.26-127.01,52.88-5.39,1.4-10.7,3.1-16.81,4.89,2.45,2.17,4.11,3.71,5.83,5.17,12.81,10.89,25.6,21.81,38.46,32.64,10.31,8.69,20.7,17.28,31.06,25.92ZM172.1,141.64c-.57,21.34.15,42.08,3.18,62.66,3.57,24.21,10.14,47.7,21.04,69.63,28.3,56.97,73.82,95.49,131.41,120.68,4.8,2.1,9.71,2.61,15.08.13,24.47-11.28,46.82-25.74,67.41-43.06,3.59-3.02.95-4.19-.98-5.87-17.66-15.26-35.29-30.55-52.98-45.76-20.2-17.37-40.47-34.65-60.69-51.99-21.54-18.48-43.08-36.97-64.58-55.5-19.51-16.81-38.96-33.68-58.89-50.92Z"/>
    <path class="cls-1" d="M68.15,296.47c-18.45,0-36.9,0-55.36-.01-7.94,0-12.84-4.13-12.79-10.7.05-6.24,5.24-10.39,13.23-10.39,32.69,0,65.37.06,98.06.09,4.22,0,8.44-.02,12.65.04,7.54.1,12.31,4.34,12.21,10.8-.09,6.26-4.67,10.16-12.12,10.17-18.63.03-37.26.01-55.88,0Z"/>
    <path class="cls-1" d="M72.76,244.84c-12.1,0-24.2.06-36.3-.02-6.65-.04-11.14-4.26-11-10.08.15-6.11,4.38-10.13,11.03-10.15,24.2-.06,48.41-.06,72.61,0,6.7.01,11.27,4.45,11.22,10.56-.05,5.76-4.46,9.63-11.25,9.66-12.1.06-24.2.02-36.3.02Z"/>
    <path class="cls-1" d="M93.86,188.89c-3.51,0-7.04.19-10.54-.04-5.86-.4-9.53-4.5-9.6-10.37-.08-6.01,2.84-9.57,9.03-9.97,6.82-.44,13.7-.62,20.52-.25,6.8.36,11,5.18,10.71,11.22-.28,5.84-4.56,9.32-11.68,9.44-2.81.05-5.62,0-8.44,0v-.03Z"/>
    <path fill="currentColor" d="M258.08,167.99c-.85-19.05,4.94-35.8,18.01-49.69,16.36-17.39,36.88-24.95,60.48-23.24,21.71,1.57,40.23,10.51,54.8,26.89,15.72,17.67,21.08,38.63,18.48,61.75-1.76,15.69-7.76,29.81-17.77,42.29,26.17,8.47,38.48,27.57,42.61,53.24,1.93,11.96,2.6,23.98,2.32,36.08-11.86-8.45-22.67-18.19-33.89-27.43-22.01-18.13-43.97-36.33-65.97-54.48-14.24-11.75-28.35-23.68-42.83-35.14-11.16-8.83-21.24-19-33.33-26.68-1.23-.78-1.95-2.37-2.9-3.59ZM342.51,178.4c3.72,3.2,7.5,4.93,11.51,6.07,15.27,4.33,27.62-5.37,26.97-21-.15-3.65-1-5.38-4.83-2.95-2.49,1.57-5.19,2.8-7.8,4.18-8.53,4.52-17.07,9.04-25.85,13.7ZM322.87,178.61c-11.98-6.4-23.48-12.53-34.97-18.68-1.47-.78-2.45-1-3.04,1.1-2.4,8.53,2.79,19.14,11.01,22.56,9.86,4.11,18.39,1.09,27-4.99Z"/>
  </g>
</svg>